HIERARCHY
ROOT Pelvis
{
	OFFSET 0.000000 0.000000 0.000000
	CHANNELS 6 Xposition Yposition Zposition Zrotation Yrotation Xrotation 
	JOINT Left_hip
	{
		OFFSET 0.067986 -0.089946 -0.007639
		CHANNELS 3 Zrotation Yrotation Xrotation
		JOINT Left_knee
		{
			OFFSET 0.036308 -0.388288 -0.004016
			CHANNELS 3 Zrotation Yrotation Xrotation
			JOINT Left_ankle
			{
				OFFSET -0.012264 -0.413250 -0.042878
				CHANNELS 3 Zrotation Yrotation Xrotation
				JOINT Left_foot
				{
					OFFSET 0.024043 -0.058563 0.118570
					CHANNELS 3 Zrotation Yrotation Xrotation
					End Site
					{
						OFFSET 0.000000 0.000000 0.000000
					}
				}
			}
		}
	}
	JOINT Right_hip
	{
		OFFSET -0.065648 -0.089374 -0.003858
		CHANNELS 3 Zrotation Yrotation Xrotation
		JOINT Right_knee
		{
			OFFSET -0.042132 -0.395021 -0.006361
			CHANNELS 3 Zrotation Yrotation Xrotation
			JOINT Right_ankle
			{
				OFFSET 0.014805 -0.413264 -0.041054
				CHANNELS 3 Zrotation Yrotation Xrotation
				JOINT Right_foot
				{
					OFFSET -0.021758 -0.049013 0.121832
					CHANNELS 3 Zrotation Yrotation Xrotation
					End Site
					{
						OFFSET 0.000000 0.000000 0.000000
					}
				}
			}
		}
	}
	JOINT Spine1
	{
		OFFSET -0.002755 0.104406 -0.022277
		CHANNELS 3 Zrotation Yrotation Xrotation
		JOINT Spine2
		{
			OFFSET 0.004136 0.129393 -0.002186
			CHANNELS 3 Zrotation Yrotation Xrotation
			JOINT Spine3
			{
				OFFSET 0.001906 0.049304 0.025578
				CHANNELS 3 Zrotation Yrotation Xrotation
				JOINT Neck
				{
					OFFSET -0.004620 0.210958 -0.044063
					CHANNELS 3 Zrotation Yrotation Xrotation
					JOINT Head
					{
						OFFSET 0.003833 0.067393 0.052435
						CHANNELS 3 Zrotation Yrotation Xrotation
						End Site
						{
							OFFSET 0.000000 0.000000 0.000000
						}
					}
				}
				JOINT Left_collar
				{
					OFFSET 0.070771 0.116689 -0.037192
					CHANNELS 3 Zrotation Yrotation Xrotation
					JOINT Left_shoulder
					{
						OFFSET 0.080652 0.031596 -0.005617
						CHANNELS 3 Zrotation Yrotation Xrotation
						JOINT Left_elbow
						{
							OFFSET 0.262654 -0.015020 -0.027939
							CHANNELS 3 Zrotation Yrotation Xrotation
							JOINT Left_wrist
							{
								OFFSET 0.250438 0.010062 -0.000990
								CHANNELS 3 Zrotation Yrotation Xrotation
								JOINT Left_palm
								{
									OFFSET 0.081198 -0.010037 -0.013706
									CHANNELS 3 Zrotation Yrotation Xrotation
									End Site
									{
										OFFSET 0.000000 0.000000 0.000000
									}
								}
							}
						}
					}
				}
				JOINT Right_collar
				{
					OFFSET -0.072972 0.115556 -0.040762
					CHANNELS 3 Zrotation Yrotation Xrotation
					JOINT Right_shoulder
					{
						OFFSET -0.082917 0.031841 -0.006673
						CHANNELS 3 Zrotation Yrotation Xrotation
						JOINT Right_elbow
						{
							OFFSET -0.252882 -0.013790 -0.020410
							CHANNELS 3 Zrotation Yrotation Xrotation
							JOINT Right_wrist
							{
								OFFSET -0.255570 0.009163 -0.005138
								CHANNELS 3 Zrotation Yrotation Xrotation
								JOINT Right_palm
								{
									OFFSET -0.080804 -0.007282 -0.010415
									CHANNELS 3 Zrotation Yrotation Xrotation
									End Site
									{
										OFFSET 0.000000 0.000000 0.000000
									}
								}
							}
						}
					}
				}
			}
		}
	}
}
MOTION
Frames: 14
Frame Time: 0.100000
-0.028817 0.008679 -0.041551 172.947854 29.748106 -12.576411 6.016022 1.488497 -5.262384 -4.560296 -10.500470 3.364474 -3.104681 5.230132 -4.727703 8.519404 8.668707 -2.843382 -6.538237 -8.488823 -0.810733 3.291573 -6.495139 2.132615 3.606861 -8.902157 -5.026167 -2.333240 -1.955226 3.503991 -2.042785 6.138562 4.810423 -0.472596 -1.031732 12.822353 0.759453 4.471670 -6.859926 1.571567 -10.170650 3.190472 8.715198 -0.821578 -9.824020 -21.842978 -11.300289 -3.947536 -37.344308 -7.132726 19.371136 117.073976 -85.041713 -102.468672 -0.861261 -8.304990 -4.955478 -18.356292 -10.526629 -10.056631 12.180330 24.299119 0.663618 12.239276 23.359800 2.223938 84.574821 81.780399 91.664310 5.505405 12.204878 -0.790493 15.578799 9.130763 -6.634247 
-0.035759 0.009975 -0.044310 171.983129 32.018204 -12.268916 5.755210 0.492764 -7.343627 -5.114821 -11.622609 5.085608 -4.489577 6.040363 -5.452839 10.531308 6.916085 -2.841525 -6.497766 -9.035295 -1.071575 3.114225 -6.784064 1.689744 4.608817 -10.838941 -5.097714 -4.777756 0.480501 3.489520 -2.089065 6.187122 6.106486 -1.388048 -1.554892 11.416331 0.973755 3.736179 -6.177652 -0.380377 -11.922224 1.358980 10.959163 -0.793102 -11.053412 -23.786517 -10.324397 -4.196757 -35.054724 -8.625973 18.834690 135.726939 -84.008410 -123.893644 -8.337795 -9.516673 -2.311728 -19.407512 -11.842275 -10.346865 12.204329 20.116071 0.761426 10.122822 11.342809 4.619392 96.459585 75.838134 101.489833 23.095104 13.665709 -3.094848 15.262962 11.326265 -6.895509 
-0.044509 0.010747 -0.048828 170.816142 33.502114 -12.709364 5.637279 0.794208 -8.077193 -5.790230 -13.646782 5.657889 -4.885624 7.258569 -5.687934 9.865359 5.026990 -4.469042 -6.284522 -10.022285 -1.233965 2.776476 -5.342067 1.825394 4.188742 -13.493324 -4.427070 -4.918390 3.174938 3.708498 -1.961554 5.902214 6.917179 -2.019190 -1.743528 10.565936 0.843985 3.825813 -5.569116 -1.191579 -14.336207 0.506631 11.842839 0.547116 -11.023512 -23.848773 -10.386947 -4.027083 -35.755987 -10.190543 17.345913 155.633552 -84.789656 -145.012911 -9.041800 -7.525885 -1.336204 -19.727888 -12.487905 -8.412239 10.769846 18.098463 1.019128 6.860240 10.233962 0.359284 35.310980 59.077403 42.469862 26.130763 4.866543 11.765115 14.700361 14.692371 -8.345981 
-0.054280 0.011450 -0.053494 170.380565 32.713087 -13.133518 5.519444 1.718720 -7.633547 -6.133978 -14.623174 5.745888 -3.897133 8.200556 -5.854627 7.086687 4.126789 -6.308767 -6.269389 -10.808475 -1.806606 2.527736 -3.194231 2.856541 3.633784 -14.865548 -3.560729 -3.835690 5.243646 4.302049 -1.844762 6.331843 6.912574 -2.039622 -0.865095 11.461759 0.501116 5.281075 -6.335714 -0.793329 -16.329648 -0.256090 11.650823 0.209092 -9.387522 -23.330254 -12.442245 -3.437523 -36.508989 -10.976397 16.199587 -164.592665 -86.656478 176.639989 -4.595587 -5.406045 0.793202 -18.871197 -13.008374 -6.959271 11.121556 20.583177 2.506445 2.304553 15.730130 -8.045218 11.580499 31.638264 24.404521 13.973926 -2.323347 35.014677 14.313117 17.102921 -10.846669 
-0.063458 0.011102 -0.056579 170.495024 30.828233 -13.262994 5.468733 2.604678 -6.056301 -6.043161 -14.022195 4.129328 -2.590923 7.952573 -5.808679 5.037586 4.673163 -6.567074 -6.808371 -10.836134 -2.918637 2.733695 -2.674427 5.077728 3.786162 -13.987648 -3.149383 -3.565867 4.988182 4.413872 -2.160824 6.582808 6.267299 -1.317695 -0.145828 12.420408 0.461302 6.265648 -6.850063 -0.044749 -16.318705 -0.056686 11.057590 -0.309110 -8.792819 -22.094295 -13.027596 -3.522949 -38.028357 -10.131083 17.001338 -141.078200 -86.657443 153.963671 0.362715 -5.300326 -1.831541 -17.958113 -12.236065 -6.802412 11.369055 22.986080 2.123581 0.109304 22.435214 -14.292889 1.765039 23.493005 11.378052 1.751374 0.669410 39.478269 14.715194 15.910822 -11.257279 
-0.069359 0.010632 -0.059171 170.658982 28.723936 -13.754981 5.545376 2.869269 -4.568550 -5.924543 -12.827178 3.404091 -1.443044 7.674533 -6.052304 5.012605 5.817314 -6.019632 -7.338217 -10.076359 -4.406097 2.891312 -2.915612 8.696766 4.660858 -12.257579 -3.209910 -4.734403 3.530028 3.284596 -2.487655 6.546562 6.714615 -0.795687 0.219759 12.607974 0.600739 6.415919 -6.699063 1.195678 -15.045792 -0.042961 10.689814 -0.518257 -8.419482 -21.382080 -12.647433 -3.965824 -38.130751 -8.609747 17.738533 -162.659630 -86.847742 176.457334 0.800501 -5.278214 -3.456170 -17.933133 -11.801532 -7.891677 11.880638 24.594126 1.368942 1.548695 26.519804 -13.811967 -1.718867 36.083560 3.549819 -0.095656 2.802568 29.110686 15.074999 13.527522 -10.374313 
-0.073814 0.009405 -0.059603 170.419805 27.743152 -14.243868 5.742237 2.704418 -3.785601 -5.766234 -11.754598 3.339571 -0.618355 7.037834 -6.159333 5.146340 7.241458 -5.362757 -7.617648 -9.431702 -5.164524 2.974971 -3.736712 11.048947 5.544302 -10.562076 -3.068312 -5.446660 1.842939 2.475892 -2.846879 6.475538 7.142458 -0.337611 0.235114 12.446545 0.880878 6.059819 -6.226130 1.709400 -13.254726 0.564613 10.246038 -0.871593 -8.888515 -20.695556 -12.266350 -4.223514 -38.044374 -7.275765 18.143819 162.466274 -86.434441 -148.210396 0.126080 -5.513545 -4.574455 -18.152164 -11.508969 -9.152750 12.394543 25.151528 1.099810 5.912419 26.954643 -8.860944 -2.262089 55.309520 3.259991 0.393012 5.100431 18.978452 15.648039 11.546122 -9.571267 
-0.077842 0.008588 -0.058589 169.915749 28.250846 -14.285974 5.859859 2.112775 -3.946340 -5.739225 -11.344359 3.469422 -0.542830 6.382544 -6.244964 5.760743 8.050599 -4.708274 -7.774624 -9.125218 -5.145344 2.982689 -4.853587 11.391061 6.274881 -9.773274 -2.965388 -6.110117 0.963145 2.106359 -3.362356 6.601371 7.148236 -0.137699 0.005960 12.317459 1.112412 5.579169 -6.102089 1.868542 -11.939721 0.350128 10.771045 -1.430805 -9.423681 -20.975392 -12.006395 -4.378027 -37.057704 -7.021849 18.363518 147.729841 -85.485453 -133.628318 -1.907330 -6.747150 -4.059761 -18.175406 -11.381462 -9.944487 13.635632 24.565350 1.240494 9.468190 23.461660 -3.878913 3.592896 71.452466 10.079483 4.412658 7.674756 12.434325 15.795287 10.567479 -8.846201 
-0.081992 0.007872 -0.058105 169.220783 29.098189 -14.250578 6.003263 1.721662 -4.364031 -5.767085 -11.419655 3.588568 -0.739827 6.140150 -6.257344 6.137167 8.204611 -4.479535 -7.688807 -9.006087 -5.114747 2.973400 -5.393002 11.240186 6.649261 -9.811796 -2.743144 -6.374047 0.923651 2.106228 -3.616101 6.623555 7.295238 -0.255738 -0.165529 11.818873 1.226440 5.124403 -5.879274 1.804065 -11.197038 -0.407030 11.240038 -1.517076 -10.048699 -21.593386 -11.629456 -4.449688 -36.377214 -6.827501 18.318803 141.193014 -84.228406 -127.896119 -2.603939 -7.256930 -3.360728 -18.494051 -11.686889 -10.453100 14.346317 23.153860 1.607292 11.636446 18.517607 -0.064061 27.672163 79.342726 35.437377 6.880992 9.133119 9.971925 16.171278 10.745479 -8.644364 
-0.086322 0.007114 -0.057984 168.494827 29.541184 -14.467168 6.224124 1.600937 -4.530794 -5.805808 -11.719786 3.815576 -1.016158 6.329806 -6.374069 6.221269 7.918941 -4.536679 -7.507737 -8.988126 -4.942053 3.069177 -5.290990 10.996285 6.742638 -10.143886 -2.356837 -6.119575 1.418865 2.317811 -3.740361 6.667684 7.358253 -0.432039 -0.164186 11.540113 1.324499 4.857895 -5.529776 1.760567 -10.910718 -0.808857 11.834562 -1.271305 -10.739410 -22.117098 -11.126117 -4.607176 -35.817967 -6.918095 18.109851 137.692685 -83.564730 -125.848284 -2.213196 -7.302051 -2.819449 -18.926177 -12.165563 -10.857789 14.330421 21.353532 2.131595 12.238230 13.464126 2.350530 53.307274 78.511931 61.866660 8.585581 9.702515 9.688036 16.514948 11.503816 -8.738745 
-0.091123 0.006771 -0.058638 167.914659 29.504947 -14.730703 6.416873 1.709759 -4.201724 -5.799846 -12.109996 3.445854 -1.259633 6.874083 -6.495829 6.429948 7.254287 -4.681055 -7.377754 -9.011479 -4.842609 3.186139 -4.793228 10.838969 6.786125 -10.547909 -1.857750 -6.104095 2.158138 2.369195 -3.739175 6.506075 7.416201 -0.592174 -0.217830 11.302334 1.386898 4.636745 -5.322299 1.686306 -10.823173 -1.261468 12.133325 -0.611436 -11.057652 -22.670232 -10.415435 -4.719954 -34.821130 -6.565641 17.424498 138.484910 -83.515372 -127.733508 -4.029806 -7.343800 -1.822247 -19.058335 -12.435067 -10.611616 14.363209 19.770750 2.398213 11.383176 10.239954 2.917481 50.216547 74.127668 59.092823 13.677160 8.733321 11.498172 16.094518 12.227488 -8.839565 
-0.095396 0.006675 -0.059255 167.630000 28.562881 -15.247897 6.630803 2.179822 -3.354877 -5.812527 -12.563351 3.209151 -1.292675 7.885046 -6.806024 6.357300 6.246817 -5.090540 -7.178579 -9.024095 -4.594675 3.305646 -3.478798 10.815320 6.526145 -11.113604 -1.272851 -5.852963 3.198805 2.254479 -3.735618 6.391154 7.291140 -0.678891 -0.085577 11.556389 1.350353 4.794607 -5.386745 1.930370 -11.245560 -1.725280 12.314190 0.029693 -10.737146 -22.798352 -10.105931 -4.710401 -33.824072 -6.694129 16.525933 141.669873 -84.476618 -131.789632 -4.941601 -6.500060 -1.082385 -19.083782 -12.691325 -10.269055 14.098561 19.392361 2.648029 9.496749 10.677958 1.001497 30.687061 65.108513 38.290300 16.304526 5.971456 14.113862 15.490601 13.021524 -9.052241 
-0.098656 0.006860 -0.061005 167.485976 27.493458 -15.760333 6.796663 2.786978 -2.742192 -5.899363 -12.912409 3.374378 -1.157468 8.831035 -7.049244 5.883450 5.300501 -5.864342 -7.000769 -9.194973 -4.485213 3.446850 -1.992000 10.901657 6.170847 -11.694174 -0.582735 -5.625592 4.307794 2.126882 -3.594048 6.392259 7.180806 -0.646724 0.148679 12.021668 1.254496 5.291551 -5.672268 2.305379 -12.156694 -2.217555 12.294200 0.453193 -9.949247 -22.551274 -10.480049 -4.553227 -33.697937 -7.357659 15.523583 148.967389 -85.327613 -139.234644 -4.433936 -5.195235 -0.860007 -18.924495 -12.838712 -9.499248 13.768572 20.221135 2.881950 6.937363 14.216094 -3.239526 16.057951 50.848461 22.805624 14.850923 2.076993 20.231257 14.891815 13.953906 -9.572587 
-0.100184 0.007194 -0.063025 167.626379 26.180926 -15.959454 6.884157 3.434704 -2.280961 -5.886268 -12.731172 3.406961 -0.678109 9.240247 -7.129087 4.838982 4.970501 -6.555050 -6.953502 -9.284722 -4.932243 3.620347 -0.886705 11.563983 6.019727 -11.712863 -0.075448 -5.546251 4.959076 2.154476 -3.658005 6.557831 6.972741 -0.313022 0.482162 12.853688 1.186436 5.964871 -6.113257 2.502119 -12.525318 -2.637535 11.995807 0.426067 -9.318205 -22.025908 -11.181916 -4.325855 -34.342047 -8.022843 15.043502 153.279213 -85.964345 -143.082577 -1.312200 -4.356727 -1.623091 -18.521027 -12.720791 -9.054327 14.039229 21.623888 3.011273 4.883220 18.950404 -8.613075 4.991817 38.664273 9.891522 7.348368 0.796745 25.893303 15.012089 14.173253 -10.042916 
